# xmcd
#
# Track frame offsets:
#	150
#	18916
#	38587
#	55975
#	68030
#	89185
#	98998
#	117506
#	134927
#	152906
#	169676
#	181196
#	195997
#	212914
#	223612
#
# Disc length: 3178 seconds
#
# Revision: 0
# Processed by: cddbd v1.5.2PL0 Copyright (c) Steve Scherf et al.
# Submitted via: audiograbber 1.83.01
#
DISCID=dd0c680f
DTITLE=Mixed - Hot Country Hits
DYEAR=1900
DGENRE=Country
TTITLE0=That Just About Does It
TTITLE1=I'm Gonna Hire A Wino
TTITLE2=Rollin' And Ramblin'
TTITLE3=Cottonfields
TTITLE4=Rocky Mountain High
TTITLE5=Anytime
TTITLE6=Ahab The Arab
TTITLE7=Heartbeats Accelerating
TTITLE8=Hotel Whiskey
TTITLE9=Turn That Radio On
TTITLE10=Vacation
TTITLE11=If You Want To Find Love
TTITLE12=Burn In A High Wind
TTITLE13=Fool NumberOne
TTITLE14=In The Misty Moonlight
EXTD=Karaoke
EXTT0=
EXTT1=
EXTT2=
EXTT3=
EXTT4=
EXTT5=
EXTT6=
EXTT7=
EXTT8=
EXTT9=
EXTT10=
EXTT11=
EXTT12=
EXTT13=
EXTT14=
PLAYORDER=
